<?xml version="1.0" standalone="no"?>
<!DOCTYPE svg PUBLIC "-//W3C//DTD SVG 20010904//EN"
 "http://www.w3.org/TR/2001/REC-SVG-20010904/DTD/svg10.dtd">
<svg version="1.0" xmlns="http://www.w3.org/2000/svg"
 width="937.000000pt" height="937.000000pt" viewBox="0 0 937.000000 937.000000"
 preserveAspectRatio="xMidYMid meet">

<g transform="translate(0.000000,937.000000) scale(0.100000,-0.100000)"
fill="#000000" stroke="none">
<path d="M0 4685 l0 -4685 4685 0 4685 0 0 4685 0 4685 -4685 0 -4685 0 0
-4685z m6774 2499 c26 -26 29 -60 11 -141 -14 -63 -71 -185 -311 -666 -300
-600 -366 -737 -435 -910 -65 -163 -65 -163 151 -169 149 -4 163 -6 183 -26
17 -18 19 -26 11 -40 -12 -18 -14 -18 -229 -12 -112 4 -176 -20 -234 -86 -66
-75 -259 -518 -367 -841 -90 -269 -133 -472 -134 -626 0 -86 -11 -117 -40
-117 -31 0 -40 32 -40 139 0 262 77 540 316 1134 46 114 84 216 84 228 0 40
-19 59 -57 59 -39 0 -279 -108 -1138 -510 -45 -21 -110 -47 -146 -58 -294 -91
-541 -231 -885 -502 -208 -164 -309 -233 -439 -302 -279 -147 -608 -202 -817
-138 -158 49 -262 171 -327 385 -101 327 -54 665 140 1019 267 486 633 791
1108 923 136 38 294 38 398 1 97 -35 151 -68 227 -139 75 -70 138 -178 120
-206 -19 -30 -33 -25 -66 24 -200 292 -501 336 -923 134 -388 -186 -665 -485
-853 -923 -120 -281 -149 -506 -93 -735 34 -137 122 -290 206 -356 140 -110
310 -120 564 -32 230 80 414 183 676 379 137 102 195 156 195 180 0 43 -30 56
-148 66 -125 10 -176 22 -242 55 -73 37 -94 58 -85 84 9 28 23 26 145 -18 247
-88 461 -59 675 94 56 40 226 209 590 585 737 761 1097 1129 1301 1330 237
233 747 700 796 730 40 24 91 26 112 4z m-3452 -4001 l3 -327 33 -7 c71 -14
51 -37 -40 -46 l-66 -6 -7 32 -7 33 -21 -20 c-58 -53 -138 -58 -208 -13 -112
71 -129 280 -31 385 37 39 81 56 146 56 44 0 60 -5 85 -26 l31 -26 0 105 0
105 -37 9 c-22 5 -38 15 -38 23 0 14 89 47 132 49 l23 1 2 -327z m269 170 c-1
-84 0 -153 4 -153 3 0 27 14 53 32 52 36 141 50 181 29 48 -26 56 -54 61 -235
l5 -170 33 -8 c18 -5 32 -15 32 -23 0 -12 -20 -15 -110 -15 -90 0 -110 3 -110
15 0 8 14 18 33 23 l32 8 2 145 c3 158 -4 187 -49 203 -35 12 -97 -6 -138 -40
-34 -29 -36 -48 -24 -222 7 -89 8 -91 33 -94 15 -2 27 -10 29 -20 3 -16 -7
-18 -107 -18 -88 0 -111 3 -111 14 0 15 21 26 50 26 26 0 31 59 30 339 l-1
239 -40 7 c-58 10 -52 36 14 57 28 9 63 15 76 15 l25 -2 -3 -152z m3408 133
c7 -8 11 -30 9 -48 -2 -25 -10 -36 -32 -47 -25 -12 -31 -11 -55 6 -32 24 -38
58 -15 84 20 23 76 25 93 5z m-4295 -336 l101 -295 35 -5 c22 -3 35 -10 35
-20 0 -12 -22 -15 -127 -18 -123 -2 -128 -2 -128 18 0 16 7 20 33 20 57 0 60
8 31 93 l-26 78 -111 -3 -112 -3 -22 -60 c-31 -86 -30 -94 17 -101 30 -5 40
-11 40 -25 0 -17 -9 -19 -105 -19 -96 0 -105 2 -105 19 0 14 10 20 39 25 l38
6 73 212 c136 399 128 380 163 376 l30 -3 101 -295z m3186 281 c0 -15 -10 -20
-45 -25 l-45 -7 0 -120 0 -119 155 0 155 0 0 119 0 120 -42 8 c-27 6 -43 14
-43 23 0 12 24 16 133 18 124 2 132 1 132 -17 0 -15 -10 -20 -45 -25 l-45 -7
0 -263 c0 -190 3 -265 12 -274 7 -7 27 -12 45 -12 26 0 33 -4 33 -20 0 -20 -5
-20 -132 -18 -110 3 -133 6 -133 18 0 10 13 17 40 20 l40 5 0 130 0 130 -150
0 -150 0 -3 -119 c-3 -132 2 -146 54 -146 27 0 34 -4 34 -20 0 -20 -5 -20
-132 -18 -110 3 -133 6 -133 18 0 10 13 17 40 20 l40 5 3 272 2 273 -40 6
c-22 4 -43 11 -46 15 -14 23 15 29 137 29 120 0 129 -1 129 -19z m-1571 -175
c46 -24 55 -57 59 -226 2 -92 8 -160 15 -168 7 -9 22 -12 39 -8 38 7 43 -8 12
-33 -41 -32 -81 -27 -119 14 l-33 34 -18 -20 c-62 -69 -186 -65 -224 6 -22 41
-17 101 11 131 27 29 102 66 183 89 l58 17 -4 49 c-7 70 -29 91 -92 87 -48 -3
-51 -4 -61 -39 -12 -44 -32 -69 -54 -69 -22 0 -41 19 -41 41 0 25 49 79 85 95
40 18 149 18 184 0z m335 -2 c3 -9 6 -31 6 -50 0 -37 15 -46 25 -15 3 11 22
34 41 50 59 53 155 37 140 -23 -10 -41 -49 -54 -91 -31 -42 22 -53 15 -90 -58
-21 -43 -25 -65 -25 -138 0 -105 10 -139 42 -139 30 0 52 -15 44 -29 -5 -7
-47 -11 -116 -11 -69 0 -111 4 -116 11 -8 14 14 29 44 29 22 0 22 1 22 165 l0
165 -36 0 c-30 0 -35 3 -32 21 2 15 20 28 58 45 66 28 76 29 84 8z m555 -10
c42 -35 51 -77 51 -235 0 -149 6 -167 54 -155 36 9 41 -9 10 -33 -44 -35 -111
-22 -133 25 l-11 24 -46 -35 c-37 -28 -54 -35 -92 -35 -64 0 -108 28 -123 78
-24 83 33 143 178 188 l85 27 -4 49 c-7 69 -29 90 -92 86 -48 -3 -50 -4 -63
-43 -18 -54 -35 -69 -67 -61 -31 8 -34 34 -9 77 26 44 86 69 165 69 57 0 71
-4 97 -26z m1451 -1 c41 -37 49 -79 50 -238 0 -71 4 -136 9 -144 6 -9 19 -12
40 -8 40 8 47 -7 15 -32 -39 -31 -80 -27 -117 10 -25 25 -34 29 -46 20 -57
-41 -80 -51 -119 -51 -59 0 -100 24 -119 67 -39 95 23 156 216 214 l43 13 -4
48 c-7 69 -29 90 -92 86 -48 -3 -50 -4 -63 -43 -18 -54 -35 -69 -67 -61 -51
13 -22 91 46 125 31 15 62 21 110 21 60 0 71 -3 98 -27z m332 -180 l3 -207 33
-8 c18 -5 32 -15 32 -23 0 -12 -20 -15 -110 -15 -87 0 -110 3 -110 14 0 15 21
26 51 26 18 0 19 9 19 165 l0 165 -34 0 c-21 0 -36 6 -39 15 -7 17 0 22 68 51
90 39 84 52 87 -183z m282 185 c3 -13 6 -35 6 -50 0 -32 16 -37 25 -9 3 11 22
34 41 50 59 53 155 37 140 -23 -10 -41 -49 -54 -91 -31 -43 22 -58 13 -91 -60
-20 -42 -24 -66 -24 -150 0 -55 4 -105 8 -112 4 -6 21 -13 37 -15 19 -2 31
-10 33 -20 3 -16 -7 -18 -107 -18 -70 0 -112 4 -117 11 -8 14 14 29 44 29 22
0 22 1 22 165 l0 165 -34 0 c-35 0 -55 23 -33 37 21 14 111 52 123 53 7 0 14
-10 18 -22z"/>
<path d="M6588 7002 c-101 -47 -548 -483 -1572 -1532 -798 -817 -821 -841
-847 -874 -21 -26 -21 -30 -6 -41 9 -7 29 -10 45 -7 15 2 288 125 607 272 319
147 661 300 760 340 99 40 199 86 223 102 47 32 84 82 106 143 8 22 84 182
169 355 557 1134 566 1151 573 1207 3 29 5 56 3 57 -2 2 -30 -8 -61 -22z"/>
<path d="M3072 3208 c-40 -20 -65 -74 -70 -153 -2 -41 1 -87 7 -107 28 -85
122 -123 191 -76 l35 24 0 139 0 139 -34 23 c-37 25 -90 29 -129 11z"/>
<path d="M2522 3273 c-38 -105 -72 -204 -72 -209 0 -2 43 -4 95 -4 52 0 95 3
95 7 0 17 -85 263 -91 263 -4 0 -16 -26 -27 -57z"/>
<path d="M4216 3030 c-69 -27 -96 -55 -96 -101 0 -67 74 -91 141 -46 33 22 34
25 37 95 3 83 1 84 -82 52z"/>
<path d="M5096 3030 c-69 -27 -96 -55 -96 -101 0 -69 73 -91 143 -44 37 26 37
26 37 95 0 80 -2 82 -84 50z"/>
<path d="M6546 3030 c-69 -27 -96 -55 -96 -100 0 -71 71 -93 143 -45 37 26 37
26 37 95 0 80 -2 82 -84 50z"/>
</g>
</svg>
