<?xml version="1.0" standalone="no"?>
<!DOCTYPE svg PUBLIC "-//W3C//DTD SVG 20010904//EN"
 "http://www.w3.org/TR/2001/REC-SVG-20010904/DTD/svg10.dtd">
<svg version="1.0" xmlns="http://www.w3.org/2000/svg"
 width="937.000000pt" height="937.000000pt" viewBox="0 0 937.000000 937.000000"
 preserveAspectRatio="xMidYMid meet">

<g transform="translate(0.000000,937.000000) scale(0.100000,-0.100000)"
fill="#000000" stroke="none">
<path d="M6662 7180 c-49 -30 -559 -497 -796 -730 -204 -201 -592 -597 -1301
-1330 -353 -366 -534 -545 -590 -585 -214 -152 -428 -182 -675 -94 -122 44
-136 46 -145 18 -9 -26 12 -47 85 -84 66 -33 117 -45 242 -55 118 -10 148 -23
148 -66 0 -24 -58 -78 -195 -180 -262 -196 -446 -299 -676 -379 -358 -125
-567 -56 -713 233 -73 146 -103 364 -72 538 28 164 97 351 198 537 186 343
429 578 763 738 422 202 723 158 923 -134 33 -49 47 -54 66 -24 19 29 -45 137
-124 210 -126 117 -241 161 -415 161 -89 0 -129 -5 -206 -27 -493 -138 -873
-465 -1136 -977 -188 -367 -214 -743 -72 -1073 58 -134 144 -225 256 -267 208
-78 554 -26 848 128 130 69 231 138 440 303 99 78 234 177 300 221 152 100
386 216 535 264 63 20 185 70 270 109 244 114 700 326 871 404 167 76 219 87
239 52 18 -34 12 -58 -56 -224 -252 -621 -333 -906 -334 -1174 0 -105 10 -143
39 -143 30 0 41 30 41 117 1 263 136 705 377 1236 97 211 133 261 215 297 45
19 67 23 143 20 215 -6 217 -6 229 12 8 14 6 22 -11 40 -20 20 -34 22 -183 26
-181 5 -196 11 -187 68 11 69 144 355 448 965 258 517 320 651 334 713 18 80
15 114 -11 140 -21 22 -72 20 -112 -4z m-16 -213 c-7 -56 -25 -93 -573 -1207
-85 -173 -162 -333 -169 -355 -22 -61 -59 -111 -106 -143 -24 -16 -124 -62
-223 -102 -99 -40 -441 -193 -760 -340 -319 -147 -592 -270 -607 -272 -16 -3
-36 0 -45 7 -26 19 -86 -47 647 705 815 837 1083 1106 1463 1469 204 194 270
252 315 273 31 14 59 24 61 22 2 -1 0 -28 -3 -57z"/>
<path d="M3220 3491 c-65 -20 -72 -41 -17 -54 l37 -9 0 -106 0 -105 -24 22
c-49 47 -163 40 -223 -12 -113 -99 -104 -322 16 -398 70 -45 150 -40 208 13
l21 20 7 -33 7 -32 66 6 c91 9 111 32 40 46 l-33 7 -3 327 -2 327 -23 -1 c-12
-1 -47 -9 -77 -18z m-19 -294 l34 -23 0 -139 0 -139 -35 -24 c-71 -48 -167 -7
-191 83 -16 59 -6 166 19 207 38 61 112 76 173 35z"/>
<path d="M3493 3491 c-67 -20 -72 -46 -13 -56 l40 -7 0 -236 c0 -284 -5 -342
-31 -342 -28 0 -49 -11 -49 -26 0 -11 23 -14 111 -14 100 0 110 2 107 18 -2
10 -14 18 -30 20 l-27 3 -3 146 -3 145 28 24 c38 32 101 50 135 38 45 -16 52
-45 49 -203 l-2 -145 -32 -8 c-19 -5 -33 -15 -33 -23 0 -12 20 -15 111 -15
100 0 110 2 107 17 -2 11 -15 20 -33 23 l-30 5 -5 171 c-5 181 -13 209 -61
235 -40 21 -129 7 -181 -29 -26 -18 -50 -32 -53 -32 -4 0 -5 70 -3 155 l3 155
-25 -1 c-14 -1 -49 -9 -77 -18z"/>
<path d="M6906 3481 c-23 -26 -17 -60 15 -84 24 -17 30 -18 55 -6 22 11 30 22
32 47 2 18 -2 40 -9 48 -17 20 -73 18 -93 -5z"/>
<path d="M2522 3398 c-10 -29 -56 -162 -102 -296 l-83 -242 -38 -6 c-29 -5
-39 -11 -39 -25 0 -17 9 -19 105 -19 96 0 105 2 105 19 0 14 -10 20 -40 25
-47 7 -48 15 -17 101 l22 60 112 3 111 3 26 -78 c29 -85 26 -93 -31 -93 -26 0
-33 -4 -33 -20 0 -20 5 -20 128 -18 105 3 127 6 127 18 0 10 -13 17 -35 20
l-35 5 -101 295 -101 295 -31 3 c-28 3 -31 0 -50 -50z m76 -196 c23 -70 42
-131 42 -135 0 -4 -43 -7 -95 -7 -52 0 -95 2 -95 4 0 5 34 104 72 209 11 31
23 57 27 57 4 0 26 -58 49 -128z"/>
<path d="M5625 3440 c-11 -17 3 -27 45 -34 l40 -6 -2 -273 -3 -272 -40 -5
c-27 -3 -40 -10 -40 -20 0 -12 23 -15 133 -18 127 -2 132 -2 132 18 0 16 -7
20 -34 20 -52 0 -57 14 -54 146 l3 119 150 0 150 0 0 -130 0 -130 -40 -5 c-27
-3 -40 -10 -40 -20 0 -12 23 -15 133 -18 127 -2 132 -2 132 18 0 16 -7 20 -34
20 -18 0 -39 6 -45 14 -8 10 -11 91 -11 274 l1 261 45 7 c34 5 44 10 44 25 0
18 -8 19 -132 17 -109 -2 -133 -6 -133 -18 0 -9 16 -17 43 -23 l42 -8 0 -120
0 -119 -155 0 -155 0 0 119 0 120 45 7 c35 5 45 10 45 25 0 18 -9 19 -129 19
-76 0 -132 -4 -136 -10z"/>
<path d="M4135 3256 c-36 -16 -85 -70 -85 -95 0 -22 19 -41 41 -41 22 0 42 25
54 69 10 35 13 36 61 39 63 4 85 -17 92 -87 l4 -49 -58 -17 c-81 -23 -156 -60
-183 -89 -28 -30 -33 -90 -11 -131 38 -71 162 -75 224 -6 l18 20 33 -34 c38
-41 78 -46 119 -14 31 24 26 42 -10 33 -48 -12 -54 6 -54 162 0 217 -23 254
-152 254 -35 -1 -77 -7 -93 -14z m163 -278 c-3 -70 -4 -73 -37 -95 -67 -45
-141 -21 -141 46 0 46 24 71 95 100 84 34 86 32 83 -51z"/>
<path d="M4570 3246 c-38 -17 -56 -30 -58 -45 -3 -18 2 -21 32 -21 l36 0 0
-165 c0 -164 0 -165 -22 -165 -30 0 -52 -15 -44 -29 5 -7 47 -11 116 -11 69 0
111 4 116 11 8 14 -14 29 -44 29 -32 0 -42 34 -42 139 0 73 4 95 25 138 37 73
48 80 90 58 42 -23 81 -10 91 31 15 60 -81 76 -140 23 -19 -16 -38 -39 -41
-50 -10 -31 -25 -22 -25 15 0 42 -9 66 -24 66 -6 -1 -36 -11 -66 -24z"/>
<path d="M5005 3250 c-69 -34 -100 -113 -49 -126 32 -8 49 7 67 61 13 39 15
40 63 43 63 4 85 -17 92 -86 l4 -49 -85 -27 c-145 -45 -202 -105 -178 -188 15
-50 59 -78 123 -78 38 0 55 7 92 35 l46 35 11 -24 c22 -47 89 -60 133 -25 31
24 26 42 -10 33 -48 -12 -54 6 -54 155 0 158 -9 200 -51 235 -26 22 -40 26
-97 26 -47 0 -79 -6 -107 -20z m175 -270 c0 -69 0 -69 -37 -95 -70 -47 -143
-25 -143 44 0 46 27 74 96 101 82 32 84 30 84 -50z"/>
<path d="M6452 3249 c-68 -34 -97 -112 -46 -125 32 -8 49 7 67 61 13 39 15 40
63 43 63 4 85 -17 92 -86 l4 -48 -43 -13 c-193 -58 -255 -119 -216 -214 19
-43 60 -67 119 -67 39 0 62 10 119 51 12 9 21 5 46 -20 37 -37 78 -41 117 -10
32 25 25 40 -15 32 -21 -4 -34 -1 -40 8 -5 8 -9 73 -9 144 -1 159 -9 201 -50
238 -27 24 -38 27 -98 27 -48 0 -79 -6 -110 -21z m178 -269 c0 -69 0 -69 -37
-95 -72 -48 -143 -26 -143 45 0 45 27 73 96 100 82 32 84 30 84 -50z"/>
<path d="M6910 3247 c-72 -29 -80 -35 -73 -52 3 -9 18 -15 39 -15 l34 0 0
-165 c0 -156 -1 -165 -19 -165 -30 0 -51 -11 -51 -26 0 -11 23 -14 110 -14 90
0 110 3 110 15 0 8 -14 18 -32 23 l-33 8 -3 207 c-2 156 -5 207 -15 206 -6 0
-37 -10 -67 -22z"/>
<path d="M7195 3247 c-68 -30 -75 -35 -68 -52 3 -9 18 -15 39 -15 l34 0 0
-165 c0 -164 0 -165 -22 -165 -30 0 -52 -15 -44 -29 5 -7 47 -11 117 -11 100
0 110 2 107 18 -2 10 -14 18 -33 20 -16 2 -33 9 -37 15 -4 7 -8 57 -8 112 0
84 4 108 24 150 33 73 48 82 91 60 42 -23 81 -10 91 31 15 60 -81 76 -140 23
-19 -16 -38 -39 -41 -50 -9 -28 -25 -23 -25 9 0 40 -11 72 -24 72 -6 -1 -34
-11 -61 -23z"/>
</g>
</svg>
